<svg width="440" height="280" viewBox="0 0 440 280" fill="none" xmlns="http://www.w3.org/2000/svg">
  <defs>
    <linearGradient id="bg" x1="0%" y1="0%" x2="100%" y2="100%">
      <stop offset="0%" style="stop-color:#0f0f14"/>
      <stop offset="100%" style="stop-color:#1a1a24"/>
    </linearGradient>
  </defs>
  
  <!-- Background -->
  <rect width="440" height="280" fill="url(#bg)"/>
  
  <!-- Accent glow -->
  <ellipse cx="350" cy="140" rx="150" ry="150" fill="#5b3fd4" fill-opacity="0.15"/>
  
  <!-- Icon -->
  <g transform="translate(40, 80)">
    <rect width="100" height="100" rx="22" fill="#5b3fd4"/>
    <rect x="35" y="22" width="38" height="52" rx="5" fill="white" fill-opacity="0.3"/>
    <rect x="22" y="16" width="38" height="52" rx="5" fill="white"/>
    <rect x="30" y="12" width="20" height="10" rx="3" fill="#5b3fd4"/>
    <rect x="28" y="34" width="26" height="3" rx="1.5" fill="#5b3fd4" fill-opacity="0.5"/>
    <rect x="28" y="42" width="20" height="3" rx="1.5" fill="#5b3fd4" fill-opacity="0.4"/>
    <rect x="28" y="50" width="22" height="3" rx="1.5" fill="#5b3fd4" fill-opacity="0.3"/>
  </g>
  
  <!-- Text -->
  <text x="160" y="115" font-family="system-ui, -apple-system, sans-serif" font-size="32" font-weight="700" fill="white">ClipStash</text>
  <text x="160" y="150" font-family="system-ui, -apple-system, sans-serif" font-size="16" fill="#a0a0b8">Clipboard History Manager</text>
  
  <!-- Features -->
  <text x="160" y="190" font-family="system-ui, -apple-system, sans-serif" font-size="14" fill="#7c5cff">✓</text>
  <text x="180" y="190" font-family="system-ui, -apple-system, sans-serif" font-size="14" fill="#e0e0ea">Save text &amp; images</text>
  
  <text x="160" y="215" font-family="system-ui, -apple-system, sans-serif" font-size="14" fill="#7c5cff">✓</text>
  <text x="180" y="215" font-family="system-ui, -apple-system, sans-serif" font-size="14" fill="#e0e0ea">Organize with workspaces</text>
  
  <text x="160" y="240" font-family="system-ui, -apple-system, sans-serif" font-size="14" fill="#7c5cff">✓</text>
  <text x="180" y="240" font-family="system-ui, -apple-system, sans-serif" font-size="14" fill="#e0e0ea">100% private &amp; free</text>
</svg>

